<?xml version="1.0" standalone="no"?><!DOCTYPE svg PUBLIC "-//W3C//DTD SVG 1.1//EN" "http://www.w3.org/Graphics/SVG/1.1/DTD/svg11.dtd"><svg t="1769938540298" class="icon" viewBox="0 0 1024 1024" version="1.1" xmlns="http://www.w3.org/2000/svg" p-id="8509" xmlns:xlink="http://www.w3.org/1999/xlink" width="200" height="200"><path d="M0 0m512 0l0 0q512 0 512 512l0 0q0 512-512 512l0 0q-512 0-512-512l0 0q0-512 512-512Z" fill="#4166fb" p-id="8510" data-spm-anchor-id="a313x.search_index.0.i4.34373a81uSdrbh" class=""></path><path d="M374.4 464h41.6v108.8h-41.6v-108.8z m-51.2 3.2L236.8 512h-3.2L147.2 467.2H140.8c-6.4 0-12.8 3.2-12.8 9.6V576h41.6v-48c0-3.2 3.2-3.2 3.2-3.2h3.2l48 25.6c6.4 3.2 9.6 3.2 16 0l51.2-25.6h6.4v51.2h41.6v-99.2c0-6.4-6.4-9.6-12.8-9.6 0-3.2-3.2-3.2-3.2 0z m300.8-3.2H582.4v51.2c0 3.2-3.2 3.2-3.2 3.2l-108.8-51.2h-6.4c-6.4 0-12.8 3.2-12.8 9.6V576h41.6v-48c0-3.2 3.2-3.2 3.2-3.2l112 51.2H614.4c6.4 0 12.8-3.2 12.8-9.6v-102.4h-3.2z m35.2 108.8v-108.8h19.2v108.8h-19.2z m131.2 3.2c-51.2 0-89.6-22.4-89.6-57.6s38.4-57.6 89.6-57.6 89.6 22.4 89.6 57.6-35.2 57.6-89.6 57.6z m0-99.2c-38.4 0-67.2 16-67.2 41.6 0 28.8 28.8 41.6 67.2 41.6S857.6 544 857.6 518.4c3.2-25.6-28.8-41.6-67.2-41.6z" fill="#ffffff" p-id="8511" data-spm-anchor-id="a313x.search_index.0.i5.34373a81uSdrbh" class=""></path></svg>